<svg width="191" height="31" viewBox="0 0 191 31" fill="none" xmlns="http://www.w3.org/2000/svg">
<path d="M63.2732 17.834C61.5372 17.834 59.9665 17.4537 58.5612 16.6931C57.1724 15.9161 56.0812 14.8579 55.2876 13.5187C54.494 12.163 54.0972 10.6419 54.0972 8.95555C54.0972 7.26915 54.494 5.75635 55.2876 4.41715C56.0812 3.06142 57.1806 2.00328 58.586 1.24275C59.9913 0.465682 61.562 0.0771484 63.298 0.0771484C64.6537 0.0771484 65.8937 0.308615 67.018 0.771548C68.1422 1.21795 69.1012 1.88755 69.8948 2.78035L68.2828 4.34275C66.9766 2.97048 65.3481 2.28435 63.3972 2.28435C62.1076 2.28435 60.942 2.57368 59.9004 3.15235C58.8588 3.73101 58.0404 4.53288 57.4452 5.55795C56.8665 6.56648 56.5772 7.69902 56.5772 8.95555C56.5772 10.2121 56.8665 11.3529 57.4452 12.3779C58.0404 13.3865 58.8588 14.1801 59.9004 14.7587C60.942 15.3374 62.1076 15.6267 63.3972 15.6267C65.3316 15.6267 66.9601 14.9323 68.2828 13.5435L69.8948 15.106C69.1012 15.9988 68.134 16.6766 66.9932 17.1396C65.8689 17.6025 64.6289 17.834 63.2732 17.834Z" fill="#080E2C"/>
<path d="M75.367 6.69875C75.7804 5.93822 76.3921 5.35955 77.2022 4.96275C78.0124 4.56595 78.9961 4.36755 80.1534 4.36755V6.67395C80.0212 6.65741 79.8393 6.64915 79.6078 6.64915C78.3182 6.64915 77.3014 7.03768 76.5574 7.81475C75.83 8.57528 75.4662 9.66648 75.4662 11.0883V17.6355H73.0854V4.49155H75.367V6.69875Z" fill="#080E2C"/>
<path d="M94.8459 11.1379C94.8459 11.3198 94.8294 11.5595 94.7963 11.8571H84.1323C84.2811 13.0145 84.7854 13.9486 85.6451 14.6595C86.5214 15.3539 87.6043 15.7011 88.8939 15.7011C90.4646 15.7011 91.7294 15.1721 92.6883 14.1139L94.0027 15.6516C93.4075 16.3459 92.6635 16.875 91.7707 17.2388C90.8944 17.6025 89.9107 17.7844 88.8195 17.7844C87.4307 17.7844 86.199 17.5033 85.1243 16.9412C84.0496 16.3625 83.2147 15.5606 82.6195 14.5356C82.0408 13.5105 81.7515 12.3531 81.7515 11.0635C81.7515 9.79048 82.0326 8.64142 82.5947 7.61635C83.1734 6.59128 83.9587 5.79768 84.9507 5.23555C85.9592 4.65688 87.0918 4.36755 88.3483 4.36755C89.6048 4.36755 90.7208 4.65688 91.6963 5.23555C92.6883 5.79768 93.4571 6.59128 94.0027 7.61635C94.5648 8.64142 94.8459 9.81528 94.8459 11.1379ZM88.3483 6.37635C87.2075 6.37635 86.2486 6.72355 85.4715 7.41795C84.711 8.11235 84.2646 9.02168 84.1323 10.1459H92.5643C92.432 9.03821 91.9774 8.13715 91.2003 7.44275C90.4398 6.73182 89.4891 6.37635 88.3483 6.37635Z" fill="#080E2C"/>
<path d="M101.921 17.7844C100.847 17.7844 99.8135 17.6438 98.8215 17.3627C97.8295 17.0651 97.0524 16.6931 96.4903 16.2467L97.4823 14.3619C98.0609 14.7753 98.7636 15.1059 99.5903 15.3539C100.417 15.6019 101.252 15.726 102.095 15.726C104.178 15.726 105.22 15.1307 105.22 13.9404C105.22 13.5435 105.079 13.2294 104.798 12.9979C104.517 12.7665 104.162 12.6011 103.732 12.5019C103.319 12.3862 102.723 12.2622 101.946 12.1299C100.888 11.9646 100.02 11.7745 99.3423 11.5595C98.6809 11.3446 98.1105 10.9809 97.6311 10.4683C97.1516 9.95582 96.9118 9.23662 96.9118 8.31075C96.9118 7.12035 97.4079 6.16968 98.3999 5.45875C99.3919 4.73128 100.723 4.36755 102.393 4.36755C103.269 4.36755 104.145 4.47502 105.021 4.68995C105.898 4.90488 106.617 5.19422 107.179 5.55795L106.162 7.44275C105.088 6.74835 103.823 6.40115 102.368 6.40115C101.359 6.40115 100.591 6.56648 100.061 6.89715C99.5324 7.22782 99.2679 7.66595 99.2679 8.21155C99.2679 8.64142 99.4167 8.98035 99.7143 9.22835C100.012 9.47635 100.376 9.65822 100.805 9.77395C101.252 9.88968 101.872 10.0219 102.665 10.1707C103.724 10.3526 104.575 10.551 105.22 10.7659C105.881 10.9643 106.443 11.3115 106.906 11.8075C107.369 12.3035 107.601 12.9979 107.601 13.8907C107.601 15.0812 107.088 16.0318 106.063 16.7428C105.055 17.4371 103.674 17.7844 101.921 17.7844Z" fill="#080E2C"/>
<path d="M117.966 16.8668C117.619 17.1644 117.189 17.3958 116.677 17.5611C116.164 17.7099 115.635 17.7844 115.09 17.7844C113.767 17.7844 112.742 17.4289 112.014 16.7179C111.287 16.007 110.923 14.9902 110.923 13.6675V6.45075H108.691V4.49155H110.923V1.61475H113.304V4.49155H117.074V6.45075H113.304V13.5683C113.304 14.2793 113.478 14.8249 113.825 15.2052C114.189 15.5854 114.701 15.7755 115.362 15.7755C116.09 15.7755 116.71 15.5689 117.222 15.1556L117.966 16.8668Z" fill="#080E2C"/>
<path d="M146.885 0.275547L141.206 17.6355H136.89L133.071 5.88035L129.128 17.6355H124.838L119.134 0.275547H123.3L127.218 12.4771L131.31 0.275547H135.03L138.998 12.5764L143.041 0.275547H146.885Z" fill="#080E2C"/>
<path d="M153.244 4.09475C155.31 4.09475 156.897 4.59075 158.005 5.58275C159.113 6.55822 159.667 8.03795 159.667 10.0219V17.6355H156.046V15.9739C155.318 17.2139 153.963 17.834 151.979 17.834C150.954 17.834 150.061 17.6603 149.3 17.3132C148.556 16.966 147.986 16.4865 147.589 15.8748C147.192 15.263 146.994 14.5686 146.994 13.7915C146.994 12.5515 147.457 11.5761 148.383 10.8651C149.325 10.1542 150.772 9.79875 152.723 9.79875H155.798C155.798 8.95555 155.542 8.31075 155.029 7.86435C154.517 7.40142 153.748 7.16995 152.723 7.16995C152.012 7.16995 151.309 7.28568 150.615 7.51715C149.937 7.73208 149.358 8.02968 148.879 8.40995L147.49 5.70675C148.217 5.19421 149.085 4.79741 150.094 4.51635C151.119 4.23528 152.169 4.09475 153.244 4.09475ZM152.946 15.2299C153.607 15.2299 154.194 15.0811 154.707 14.7835C155.219 14.4694 155.583 14.0148 155.798 13.4195V12.0555H153.144C151.557 12.0555 150.764 12.5763 150.764 13.6179C150.764 14.1139 150.954 14.5107 151.334 14.8083C151.731 15.0894 152.268 15.2299 152.946 15.2299Z" fill="#080E2C"/>
<path d="M176.169 4.29315L170.54 17.6355H166.547L160.942 4.29315H164.935L168.63 13.37L172.449 4.29315H176.169Z" fill="#080E2C"/>
<path d="M190.454 11.0139C190.454 11.0635 190.429 11.4108 190.38 12.0555H180.286C180.468 12.8822 180.898 13.5353 181.576 14.0147C182.254 14.4942 183.097 14.7339 184.105 14.7339C184.8 14.7339 185.411 14.6348 185.941 14.4363C186.486 14.2214 186.99 13.8907 187.453 13.4443L189.512 15.6763C188.255 17.1147 186.42 17.834 184.006 17.834C182.502 17.834 181.171 17.5446 180.013 16.966C178.856 16.3708 177.963 15.5524 177.335 14.5107C176.707 13.4691 176.393 12.287 176.393 10.9643C176.393 9.65822 176.698 8.48435 177.31 7.44275C177.938 6.38462 178.79 5.56622 179.865 4.98755C180.956 4.39235 182.171 4.09475 183.51 4.09475C184.816 4.09475 185.998 4.37581 187.057 4.93795C188.115 5.50008 188.941 6.31021 189.537 7.36835C190.148 8.40995 190.454 9.62515 190.454 11.0139ZM183.535 7.02115C182.659 7.02115 181.923 7.26915 181.328 7.76515C180.733 8.26115 180.369 8.93902 180.237 9.79875H186.809C186.676 8.95555 186.313 8.28595 185.717 7.78995C185.122 7.27742 184.395 7.02115 183.535 7.02115Z" fill="#080E2C"/>
<path d="M25.0741 31L13.7788 7.85073L17.9652 0L33.0658 30.9482L25.0741 31Z" fill="#080E2C"/>
<path d="M11.2953 31L0 7.85073L4.18636 0L19.287 30.9482L11.2953 31Z" fill="#080E2C"/>
<path d="M33.0691 31L44.3644 7.85073L40.178 0L25.0774 30.9482L33.0691 31Z" fill="#FFA000"/>
<path d="M19.2903 31L30.5856 7.85073L26.3992 0L11.2986 30.9482L19.2903 31Z" fill="#FFA000"/>
<path d="M93.5429 29.3274V29.4844H89.6907V23.6978H93.4189V23.8548H89.856V26.4671H93.0469V26.6242H89.856V29.3274H93.5429Z" fill="#080E2C"/>
<path d="M96.0392 23.6978H96.2045V29.3274H99.6517V29.4844H96.0392V23.6978Z" fill="#080E2C"/>
<path d="M105.513 29.3274V29.4844H101.661V23.6978H105.389V23.8548H101.827V26.4671H105.017V26.6242H101.827V29.3274H105.513Z" fill="#080E2C"/>
<path d="M110.325 29.5092C109.769 29.5092 109.264 29.3825 108.813 29.129C108.361 28.8755 108.005 28.5283 107.746 28.0874C107.487 27.641 107.358 27.1422 107.358 26.5911C107.358 26.04 107.487 25.544 107.746 25.1031C108.005 24.6567 108.361 24.3068 108.813 24.0532C109.264 23.7997 109.769 23.673 110.325 23.673C110.717 23.673 111.08 23.7364 111.417 23.8631C111.758 23.9844 112.05 24.1662 112.293 24.4087L112.194 24.5244C111.709 24.0615 111.086 23.83 110.325 23.83C109.802 23.83 109.325 23.9513 108.895 24.1938C108.471 24.4363 108.135 24.7697 107.887 25.194C107.644 25.6129 107.523 26.0786 107.523 26.5911C107.523 27.1036 107.644 27.5721 107.887 27.9964C108.135 28.4153 108.471 28.746 108.895 28.9884C109.325 29.2309 109.802 29.3522 110.325 29.3522C111.08 29.3522 111.703 29.118 112.194 28.6495L112.293 28.7652C112.05 29.0077 111.758 29.1924 111.417 29.3191C111.075 29.4459 110.711 29.5092 110.325 29.5092Z" fill="#080E2C"/>
<path d="M115.675 23.8548H113.526V23.6978H117.99V23.8548H115.841V29.4844H115.675V23.8548Z" fill="#080E2C"/>
<path d="M124.057 29.4844L122.585 27.4426C122.392 27.4812 122.166 27.5004 121.907 27.5004H120.113V29.4844H119.948V23.6978H121.907C122.618 23.6978 123.175 23.8659 123.577 24.202C123.979 24.5327 124.181 24.9984 124.181 25.5991C124.181 26.062 124.057 26.4506 123.809 26.7647C123.561 27.0733 123.211 27.2855 122.759 27.4012L124.263 29.4844H124.057ZM121.924 27.3434C122.596 27.3434 123.111 27.1918 123.47 26.8887C123.833 26.5856 124.015 26.1557 124.015 25.5991C124.015 25.0425 123.833 24.6126 123.47 24.3095C123.111 24.0064 122.596 23.8548 121.924 23.8548H120.113V27.3434H121.924Z" fill="#080E2C"/>
<path d="M129.048 29.5092C128.491 29.5092 127.987 29.3825 127.535 29.129C127.083 28.8755 126.728 28.5283 126.469 28.0874C126.21 27.641 126.08 27.1422 126.08 26.5911C126.08 26.04 126.21 25.544 126.469 25.1031C126.728 24.6567 127.083 24.3068 127.535 24.0532C127.987 23.7997 128.491 23.673 129.048 23.673C129.605 23.673 130.109 23.7997 130.561 24.0532C131.013 24.3068 131.368 24.6567 131.627 25.1031C131.886 25.544 132.016 26.04 132.016 26.5911C132.016 27.1422 131.886 27.641 131.627 28.0874C131.368 28.5283 131.013 28.8755 130.561 29.129C130.109 29.3825 129.605 29.5092 129.048 29.5092ZM129.048 29.3522C129.572 29.3522 130.046 29.2337 130.47 28.9967C130.9 28.7542 131.236 28.4236 131.478 28.0047C131.726 27.5804 131.85 27.1092 131.85 26.5911C131.85 26.0731 131.726 25.6046 131.478 25.1858C131.236 24.7614 130.9 24.4308 130.47 24.1938C130.046 23.9513 129.572 23.83 129.048 23.83C128.525 23.83 128.048 23.9513 127.618 24.1938C127.194 24.4308 126.857 24.7614 126.609 25.1858C126.367 25.6046 126.246 26.0731 126.246 26.5911C126.246 27.1092 126.367 27.5804 126.609 28.0047C126.857 28.4236 127.194 28.7542 127.618 28.9967C128.048 29.2337 128.525 29.3522 129.048 29.3522Z" fill="#080E2C"/>
<path d="M138.976 23.6978V29.4844H138.835L134.595 24.0036V29.4844H134.429V23.6978H134.57L138.811 29.1786V23.6978H138.976Z" fill="#080E2C"/>
<path d="M142.005 23.6978H142.17V29.4844H142.005V23.6978Z" fill="#080E2C"/>
<path d="M147.553 29.5092C146.996 29.5092 146.492 29.3825 146.04 29.129C145.588 28.8755 145.233 28.5283 144.974 28.0874C144.715 27.641 144.585 27.1422 144.585 26.5911C144.585 26.04 144.715 25.544 144.974 25.1031C145.233 24.6567 145.588 24.3068 146.04 24.0532C146.492 23.7997 146.996 23.673 147.553 23.673C147.944 23.673 148.308 23.7364 148.644 23.8631C148.986 23.9844 149.278 24.1662 149.52 24.4087L149.421 24.5244C148.936 24.0615 148.313 23.83 147.553 23.83C147.029 23.83 146.553 23.9513 146.123 24.1938C145.698 24.4363 145.362 24.7697 145.114 25.194C144.872 25.6129 144.75 26.0786 144.75 26.5911C144.75 27.1036 144.872 27.5721 145.114 27.9964C145.362 28.4153 145.698 28.746 146.123 28.9884C146.553 29.2309 147.029 29.3522 147.553 29.3522C148.308 29.3522 148.931 29.118 149.421 28.6495L149.52 28.7652C149.278 29.0077 148.986 29.1924 148.644 29.3191C148.302 29.4459 147.939 29.5092 147.553 29.5092Z" fill="#080E2C"/>
<path d="M153.274 29.5092C152.855 29.5092 152.461 29.4348 152.092 29.286C151.722 29.1317 151.439 28.9333 151.24 28.6908L151.356 28.5834C151.543 28.8038 151.811 28.9884 152.158 29.1372C152.505 29.2805 152.874 29.3522 153.266 29.3522C153.866 29.3522 154.318 29.2337 154.621 28.9967C154.93 28.7542 155.084 28.4428 155.084 28.0626C155.084 27.765 155.004 27.528 154.844 27.3516C154.685 27.1753 154.486 27.043 154.249 26.9548C154.018 26.8667 153.704 26.7757 153.307 26.682C152.883 26.5773 152.546 26.4781 152.298 26.3844C152.05 26.2852 151.838 26.1364 151.662 25.938C151.491 25.7341 151.406 25.4641 151.406 25.1279C151.406 24.8634 151.474 24.6209 151.612 24.4004C151.75 24.18 151.965 24.0036 152.257 23.8714C152.549 23.7391 152.91 23.673 153.34 23.673C153.649 23.673 153.952 23.7226 154.249 23.8218C154.547 23.9155 154.803 24.0422 155.018 24.202L154.927 24.3343C154.701 24.169 154.448 24.045 154.167 23.9623C153.891 23.8741 153.618 23.83 153.348 23.83C152.77 23.83 152.329 23.954 152.026 24.202C151.722 24.4445 151.571 24.7559 151.571 25.1362C151.571 25.4338 151.651 25.6735 151.811 25.8554C151.97 26.0317 152.169 26.164 152.406 26.2522C152.643 26.3404 152.962 26.434 153.365 26.5332C153.784 26.638 154.117 26.7399 154.365 26.8391C154.613 26.9328 154.822 27.0788 154.993 27.2772C155.164 27.4701 155.25 27.7319 155.25 28.0626C155.25 28.3271 155.178 28.5696 155.035 28.79C154.891 29.0105 154.671 29.1868 154.373 29.3191C154.081 29.4459 153.715 29.5092 153.274 29.5092Z" fill="#080E2C"/>
</svg>
