<svg width="18" height="18" viewBox="0 0 18 18" fill="none" xmlns="http://www.w3.org/2000/svg">
<path d="M16.8722 18C7.27411 18.0136 -0.0102573 10.6419 1.08421e-05 1.12782C1.08421e-05 0.506503 0.503691 0 1.12501 0H4.09429C4.65181 0 5.12542 0.409646 5.20729 0.96112C5.4035 2.28285 5.78832 3.56959 6.35005 4.78204L6.46565 5.03157C6.6264 5.37852 6.51744 5.79076 6.20626 6.01298C5.28671 6.66966 4.93529 7.9915 5.65166 9.0229C6.55063 10.3172 7.68381 11.4501 8.97781 12.3487C10.0091 13.0649 11.3308 12.7135 11.9874 11.7941C12.2098 11.4828 12.6223 11.3737 12.9694 11.5346L13.2178 11.6496C14.4304 12.2113 15.7172 12.5961 17.0391 12.7923C17.5906 12.8742 18 13.3478 18 13.9053V16.875C18 17.4963 17.4951 18 16.8738 18L16.8722 18Z" fill="#080E2C"/>
</svg>
